<svg xmlns="http://www.w3.org/2000/svg" viewBox="0 0 512 512">
  <rect width="512" height="512" rx="108" fill="#0d1b18"/>
  <g transform="translate(100, 90) scale(12)">
    <path d="M3 6.5C3 5.4 3.9 4.5 5 4.5H15C16.1 4.5 17 5.4 17 6.5V12.5C17 13.6 16.1 14.5 15 14.5H9.5L6 18V14.5H5C3.9 14.5 3 13.6 3 12.5V6.5Z" fill="#1eba8a"/>
    <path d="M17 9H20C21.1 9 22 9.9 22 11V15C22 16.1 21.1 17 20 17H19L17.5 18.5V17H17C15.9 17 15 16.1 15 15V14" stroke="#1eba8a" stroke-width="1.3" stroke-linecap="round" stroke-linejoin="round" opacity="0.55"/>
  </g>
</svg>
